<svg xmlns="http://www.w3.org/2000/svg" viewBox="0 0 512 512" width="512" height="512"><g><path d="M512 256c0 68.38-26.63 132.67-74.98 181.02-27.11 27.11-59.23 47.39-94.28 59.98-27.45 9.86-56.7 15-86.74 15-68.38 0-132.67-26.63-181.02-74.98C26.63 388.67 0 324.38 0 256S26.63 123.33 74.98 74.98C123.33 26.63 187.62 0 256 0c68.38 0 132.67 26.63 181.02 74.98S512 187.62 512 256z" fill="#0087ff"/><path d="M512 256c0 68.38-26.63 132.67-74.98 181.02-27.11 27.11-59.23 47.39-94.28 59.98-27.45 9.86-56.7 15-86.74 15V0c68.38 0 132.67 26.63 181.02 74.98S512 187.62 512 256z" fill="#4b5be5"/><path d="M448.5 256c0 51.419-20.024 99.762-56.381 136.119-20.386 20.385-44.538 35.635-70.894 45.102C300.583 444.635 278.589 448.5 256 448.5c-51.419 0-99.762-20.025-136.119-56.381C83.525 355.762 63.5 307.419 63.5 256s20.025-99.762 56.381-136.119C156.238 83.525 204.581 63.5 256 63.5c51.418 0 99.762 20.025 136.119 56.381S448.5 204.581 448.5 256z" fill="#d8eaff"/><path d="M448.5 256c0 51.419-20.024 99.762-56.381 136.119-20.386 20.385-44.538 35.635-70.894 45.102C300.583 444.635 278.589 448.5 256 448.5v-385c51.418 0 99.762 20.025 136.119 56.381S448.5 204.581 448.5 256z" fill="#b7d9fb"/><path fill="#fe5957" d="M326.52 309.86l-21.98 20.42L256 278.03l-15-16.14V134.08h30v116.03z"/><path fill="#fc1c5c" d="M304.54 330.28L256 278.03V134.08h15v116.03l55.52 59.75z"/></g></svg>