<svg height="512" viewBox="0 0 512 512" width="512" xmlns="http://www.w3.org/2000/svg"><g><path d="M451 121h-5.142c-13.623-38.525-51.973-65.156-95.098-59.312C333.71 24.892 297.133 0 256 0s-77.71 24.892-94.761 61.688C118.114 55.99 78.765 82.489 65.142 121H60c-33.091 0-60 26.909-60 60s26.909 60 60 60h391c33.091 0 61-26.909 61-60s-27.909-60-61-60z" fill="#e6f7ff"/><path d="M512 181c0-33.091-27.909-60-61-60h-5.142c-13.623-38.525-51.973-65.156-95.098-59.312C333.71 24.892 297.133 0 256 0v241h195c33.091 0 61-26.909 61-60z" fill="#cce6ff"/><path d="M271 181H136v331h240V286z" fill="#6cf"/><path d="M376 286L271 181h-15v331h120z" fill="#4da6ff"/><path d="M271 181v105h105c0-57.891-47.109-105-105-105z" fill="#4d88ff"/><path d="M256 309.789l-55.605 55.606 21.21 21.21L241 367.211V421h30v-53.789l19.395 19.394 21.21-21.21z" fill="#e6f7ff"/><path d="M271 367.211l19.395 19.394 21.21-21.21L256 309.789V421h15z" fill="#cce6ff"/></g></svg>