<svg height="512" viewBox="0 0 512 512" width="512" xmlns="http://www.w3.org/2000/svg"><g><path d="M216 112l-80 40-40 72 24 8 40-56 72-32z" fill="#9c70af"/><path d="M96 224l-16 32 24 16 16-40z" fill="#fec9a3"/><path d="M248 32h-44.611a56 56 0 00-44.2 21.619L120 104h21.771a56 56 0 0043.02-20.15L208 56h40z" fill="#f79d16"/><path d="M280 72l-8 8v16h-24v16h-40l8-32 .56-2.23A32 32 0 11272 56z" fill="#fec9a3"/><path d="M208 112l-48 136h72v-40l8-16a32 32 0 0032-32l-24-48z" fill="#9c70af"/><path d="M255.7 28.11C254.47 38.72 248.18 67.13 216 80l.56-2.23a32 32 0 0139.14-49.66z" fill="#ffa912"/><path d="M232 248l64 200-24 16-72-176-48 88-88 64-16-24 72-64 40-104z" fill="#cc6395"/><path d="M189.732 137.747l39.668 74.377a24 24 0 0031.108 10.555L328 192l-8-24-64 24-35.161-70.322A17.509 17.509 0 00205.18 112a17.508 17.508 0 00-15.448 25.747z" fill="#b281c7"/><path d="M320 168l8-16 32-16 8 40-40 16z" fill="#fec9a3"/><path d="M329.605 448H296l-24 16 8 24 53.238-19.964a10.348 10.348 0 005.622-14.316 10.347 10.347 0 00-9.255-5.72zM48 416l-24 16 29.384 51.421A9.085 9.085 0 0061.273 488a9.088 9.088 0 008.964-10.581L64 440z" fill="#d6d6d4"/><path d="M265.352 328h-76.686a11.314 11.314 0 01-11.314-11.314 11.314 11.314 0 013.314-8L209.352 280H176a40 40 0 00-34.3 19.42 40 40 0 000 41.16A40 40 0 00176 360h89.352z" fill="#f7a116"/><path d="M304 408l-16 32 32 32v16h-32l-40-40v-40zM392 408v40l-40 40h-32v-16l32-32v-32z" fill="#f98500"/><path d="M464 304l-8-16h-32l-56 40H252.173A36.173 36.173 0 00216 364.173V408l-36.333 40L192 488h32l-8-34.333L240 432a40 40 0 0036.662-24H352v32l64 16 32 32h32l-40-56-48-16v-8l64-72h16a16 16 0 0016-16v-16z" fill="#ffb531"/><path d="M418.4 336a21.821 21.821 0 01-20.9-14.128 22.48 22.48 0 015.269-23.956l9.917-9.916A8 8 0 01424 288a8 8 0 010 11.314l-10.2 10.2A6.142 6.142 0 00418.026 320a6.375 6.375 0 004.574-1.914l6.086-6.086A8 8 0 01440 312a8 8 0 010 11.314l-5.9 5.9A22.689 22.689 0 01418.4 336z" fill="#f7a116"/></g></svg>