<svg height="512" viewBox="0 0 497 497" width="512" xmlns="http://www.w3.org/2000/svg"><g><path d="M18.285 486.251l57.249-170.528a69.84 69.84 0 0142.25-43.375l111.552-40.741 5.754-2.101c14.513-5.301 28.587 2.081 34.023 16.544 5.405 14.378-1.708 29.435-15.988 35.093l-31.148 12.134c-11.847 4.694-19.666 20.086-15.013 31.949 1.15 2.932 4.833 5.499 6.896 7.631a23.089 23.089 0 003.084 2.669c6.043 4.361 14.073 5.721 21.571 2.95l150.846-55.745 41.648-76.672a25.574 25.574 0 015.734-7.137c6.815-5.902 16.476-5.946 25.394-2.761l-1-1c13.516 4.827 20.43 19.815 15.33 33.23L436.816 329.05a34.876 34.876 0 01-17.211 18.903l-24.047 12.807-196.152 96.446a16.308 16.308 0 00-9.113 14.635v17.003a8.154 8.154 0 01-8.154 8.154H26.015c-5.573.002-9.504-5.464-7.73-10.747z" fill="#fed2a4"/><g><path d="M462.136 194.161c-8.078-2.885-16.758-1.468-23.388 3.209 9.307 6.573 13.406 18.841 9.155 30.022l-46.446 122.351a34.875 34.875 0 01-7.494 11.802l1.594-.784 26.047-12.807a34.88 34.88 0 0017.211-18.903l38.651-101.659c5.1-13.416-1.814-28.403-15.33-33.231z" fill="#ffbd86"/></g><path d="M241.55 246.05c5.405 14.378-1.708 30.435-15.988 36.093l-33.148 13.134c-11.847 4.694-17.666 18.086-13.013 29.949 4.599 11.726 17.736 17.617 29.551 13.25l7.994-2.954a23.022 23.022 0 01-7.983-10.296c-4.653-11.863 1.166-25.255 13.013-29.949l33.148-13.134c14.28-5.658 21.393-21.715 15.988-36.093-5.437-14.463-21.51-21.845-36.023-16.544l-5.754 2.101a28.045 28.045 0 0112.215 14.443z" fill="#ffbd86"/><path d="M205.181 21.558c-28.744 28.745-28.744 75.348 0 104.093l105.454 105.454 12.876 11.658a7.638 7.638 0 0010.802 0l115.893-117.112c28.744-28.744 29.963-72.911 1.219-101.656-19.061-19.06-44.757-27.919-69.109-21.7-12.372 3.159-24.082 9.58-33.765 19.264l-19.639 19.639-19.639-19.639c-28.744-28.745-75.348-28.745-104.092-.001z" fill="#fe646f"/><g><path d="M452.643 21.559c-19.06-19.061-45.971-25.468-70.323-19.25 12.372 3.159 24.085 9.566 33.769 19.249 28.745 28.745 28.745 75.348 0 104.092L310.635 231.105l12.876 12.876a7.638 7.638 0 0010.802 0l118.33-118.33c28.745-28.744 28.745-75.348 0-104.092z" fill="#fd4755"/></g></g></svg>