<svg height="512" viewBox="0 0 512 512" width="512" xmlns="http://www.w3.org/2000/svg"><path d="M421 226v30c0 85.92-66.02 156.71-150 164.31V482h75c8.28 0 15 6.72 15 15s-6.72 15-15 15H166c-8.28 0-15-6.72-15-15s6.72-15 15-15h75v-61.69C157.02 412.71 91 341.92 91 256v-30c0-8.28 6.72-15 15-15h50v30h-35v15c0 74.44 60.56 135 135 135s135-60.56 135-135v-15h-35v-30h50c8.28 0 15 6.72 15 15z" fill="#0097f0"/><path d="M421 226v30c0 85.92-66.02 156.71-150 164.31V482h75c8.28 0 15 6.72 15 15s-6.72 15-15 15h-90V391c74.44 0 135-60.56 135-135v-15h-35v-30h50c8.28 0 15 6.72 15 15z" fill="#0052c2"/><path d="M256 0c-57.897 0-105 47.103-105 105v151c0 57.897 47.103 105 105 105s105-47.103 105-105V105C361 47.103 313.897 0 256 0z" fill="#ffda2d"/><g fill="#fdbf00"><path d="M361 105v151c0 57.9-47.1 105-105 105V0c57.9 0 105 47.1 105 105zM106 46c-8.284 0-15 6.716-15 15v75c0 8.284 6.716 15 15 15s15-6.716 15-15V61c0-8.284-6.716-15-15-15zM46 0c-8.284 0-15 6.716-15 15v166c0 8.284 6.716 15 15 15s15-6.716 15-15V15c0-8.284-6.716-15-15-15z"/></g><path d="M406 46c-8.284 0-15 6.716-15 15v75c0 8.284 6.716 15 15 15s15-6.716 15-15V61c0-8.284-6.716-15-15-15zM466 0c-8.284 0-15 6.716-15 15v166c0 8.284 6.716 15 15 15s15-6.716 15-15V15c0-8.284-6.716-15-15-15z" fill="#fe9022"/></svg>