<svg height="512" viewBox="0 0 512 512" width="512" xmlns="http://www.w3.org/2000/svg"><g><path d="M313.25 344l-8 56h-24.457a10 10 0 01-9.615-7.253L257.25 344 248 392l8 96H113.25V288l-20.17 11.83-28.69 16.81a25.16 25.16 0 01-13.87 5.01c-.43.03-.85.04-1.28.04a25.233 25.233 0 01-22.57-36.53 51.583 51.583 0 0119.1-20.87l62.71-38.59a119.376 119.376 0 0162.54-17.7h30.23l48 16 29.45 15.02a62.015 62.015 0 0133.83 54.36z" fill="#4799cf"/><path d="M193.9 336a8 8 0 01-7.472-10.853l24.407-64a8 8 0 1114.949 5.7l-24.407 64A8 8 0 01193.9 336zM200 419v69h-16v-69a8 8 0 0116 0z" fill="#3775a4"/><path d="M305.245 400l80-8v-24h-78.939z" fill="#f6bb92"/><path d="M64.006 144a8 8 0 01-3.584-15.157L72 123.056V96H48v24a8 8 0 01-4.422 7.155l-16 8a8 8 0 01-7.156-14.31L32 115.056V88a8 8 0 018-8h40a8 8 0 018 8v40a8 8 0 01-4.422 7.155l-16 8a7.973 7.973 0 01-3.572.845z" fill="#aae5c8"/><path d="M368 88a8 8 0 01-5.7-13.608l9.075-9.231-8.775-25.594a8 8 0 014.972-10.162l37.838-12.972a8 8 0 0110.162 4.972l12.968 37.838a8 8 0 01-1.862 8.2L414.138 80.2a8 8 0 11-11.41-11.217l9.074-9.23-8.775-25.594-22.7 7.783 7.784 22.7a8 8 0 01-1.862 8.2l-12.544 12.766A7.977 7.977 0 01368 88z" fill="#c0f5f9"/><path d="M432.006 200a8 8 0 01-3.584-15.157L440 179.056V160a8 8 0 014.422-7.155l16-8a8 8 0 117.156 14.31L456 164.944V184a8 8 0 01-4.422 7.155l-16 8a7.973 7.973 0 01-3.572.845z" fill="#f55648"/><path d="M201.245 312a55.757 55.757 0 00-36.581 13.62 71.986 71.986 0 108.253 90.681A56 56 0 10201.245 312z" fill="#ea9d2d"/><g fill="#3775a4"><path d="M201.245 208L176 224l42.306 48zM240 208l-21.694 64L264 248zM256.006 352a8.008 8.008 0 01-7.767-9.942l8-32a8 8 0 0115.522 3.88l-8 32a8 8 0 01-7.755 6.062z"/></g><path d="M318.806 171.821l79.64 37.488-13.632 28.96-79.64-37.488z" fill="#c3c3c3"/><circle cx="312.006" cy="186.184" fill="#3775a4" r="24"/><path d="M249.25 176v48l-30.94 48-17.06-64v-32z" fill="#f6bb92"/><path d="M249.25 184v11.67a32.017 32.017 0 01-48 2.84V184z" fill="#eeb58e"/><path d="M256 127l-88 25v-26a46 46 0 0146-46h46a20 20 0 0120 20 20 20 0 01-20 20h-4z" fill="#834b10"/><path d="M192 168h-8a16 16 0 01-16-16 16 16 0 0116-16h8z" fill="#f6bb92"/><circle cx="128" cy="376" fill="#d18d28" r="32"/><path d="M488.791 352l-35.097 16L424 358.204 176 385.1l-.966-31.85L424 326.03 445.694 312l40 8.15z" fill="#d18d28"/><path d="M137.25 344l-24-24-20.17-20.17-28.69 16.81a25.16 25.16 0 01-13.87 5.01l62.73 41.11 8 5.24 14.219 21.328a6 6 0 004.992 2.672h30.789a6 6 0 006-6v-29.081a6 6 0 00-4.823-5.884zM345.245 392.681v-26.123a8 8 0 016.431-7.844l24-4.8a8 8 0 019.569 7.844v25.323a6 6 0 01-4.823 5.884l-28 5.6a6 6 0 01-7.177-5.884z" fill="#f6bb92"/><path d="M337.678 488.054l-1.678-248a8 8 0 01.493-2.819l17.678-48 15.014 5.53L352.01 241.4l1.668 246.546z" fill="#3775a4"/><path d="M224 200a32 32 0 01-32-32v-48h64v48a32 32 0 01-32 32z" fill="#f6bb92"/></g></svg>