<svg xmlns="http://www.w3.org/2000/svg" viewBox="0 0 57.968 57.968" width="58" height="58"><path d="M51.456 57.484H6.512a.629.629 0 01-.62-.52L.001 15.582a.083.083 0 01.082-.098h57.801c.052 0 .091.047.082.098l-5.891 41.381a.628.628 0 01-.619.521z" fill="#f0c419"/><path d="M55.384 15.484l.544-4.44a.509.509 0 00-.507-.56H2.547a.51.51 0 00-.507.56l.544 4.44h52.8z" fill="#65ddb9"/><g><path d="M51.984 10.484v-4.51a.49.49 0 00-.49-.49H6.474a.49.49 0 00-.49.49v4.51h46z" fill="#fb7b76"/></g><g><path d="M47.984 5.484V.974a.49.49 0 00-.49-.49h-37.02a.49.49 0 00-.49.49v4.51h38z" fill="#2fa8cc"/></g><ellipse cx="28.484" cy="36.484" rx="19.5" ry="16" fill="#556080"/><path d="M18.125 28.733a1 1 0 01-.587-1.81c3.168-2.289 6.953-3.499 10.946-3.499a1 1 0 110 2c-3.57 0-6.95 1.079-9.774 3.12a1.004 1.004 0 01-.585.189zM20.56 31.708a1 1 0 01-.587-1.81c2.463-1.781 5.406-2.723 8.512-2.723a1 1 0 110 2c-2.682 0-5.22.811-7.34 2.344a1.002 1.002 0 01-.585.189zM22.971 34.699a1 1 0 01-.59-1.807c1.765-1.287 3.875-1.967 6.104-1.967a1 1 0 110 2c-1.802 0-3.506.547-4.926 1.582a1 1 0 01-.588.192zM28.574 49.733a1 1 0 110-2c3.57 0 6.95-1.079 9.774-3.121a1 1 0 011.171 1.621c-3.165 2.29-6.951 3.5-10.945 3.5zM28.574 45.982a1 1 0 110-2c2.683 0 5.221-.811 7.34-2.345a1 1 0 111.171 1.621c-2.461 1.782-5.404 2.724-8.511 2.724zM28.574 42.231a1 1 0 110-2c1.804 0 3.507-.547 4.925-1.582a1 1 0 111.179 1.615c-1.763 1.287-3.873 1.967-6.104 1.967z" fill="#8697cb"/><ellipse cx="28.88" cy="36.468" rx="2.327" ry="1.689" fill="#8697cb"/></svg>