<svg height="512pt" viewBox="0 -5 512 512" width="512pt" xmlns="http://www.w3.org/2000/svg"><path d="M104.063 204.648a7.668 7.668 0 00-5.52 4.95L.418 492.434c-2.055 5.918 3.82 11.789 9.738 9.738l282.836-98.129c5.25-1.824 6.817-8.727 2.903-12.64L111.187 206.694a7.65 7.65 0 00-7.125-2.047zm0 0" fill="#ffe45c"/><path d="M104.063 204.648a7.668 7.668 0 00-5.52 4.95L.418 492.434c-2.055 5.918 3.82 11.789 9.738 9.738l282.836-98.129c5.25-1.824 6.817-8.727 2.903-12.64L111.187 206.694a7.65 7.65 0 00-7.125-2.047zm0 0" fill="#ffeb85"/><path d="M295.895 391.402l-19.305-19.304c-.852 1.593-2.254 2.906-4.137 3.562L9.25 466.973.418 492.43c-2.055 5.922 3.82 11.793 9.738 9.742l282.836-98.129c5.25-1.824 6.817-8.727 2.903-12.64zm0 0" fill="#fd3"/><g fill="#eb6c8e"><path d="M171.977 267.484l-91.848-4.804-13.93 40.144 148.903 7.785zm0 0M39.695 379.219l257.196 13.449a7.24 7.24 0 00-.996-1.266l-41.848-41.847-200.422-10.48zm0 0M13.191 455.61l113.985 5.96 102.379-35.515L27.12 415.469zm0 0"/></g><path d="M272.453 375.66l-39.398 13.668 63.836 3.34a7.24 7.24 0 00-.996-1.266l-19.305-19.3c-.852 1.586-2.254 2.902-4.137 3.558zm0 0M38.227 456.922l88.949 4.648 102.379-35.515-88.95-4.653zm0 0" fill="#e54771"/><path d="M156.39 221.063a8.16 8.16 0 01-8.124-7.5 57.672 57.672 0 015.32-29.25c3.016-6.387 6.734-10.973 11.36-14.024 7.988-5.262 17.46-5.082 25.074-4.934l1.19.02c10.923.184 37.138-1.242 44.778-18.594 3.278-7.445 2.575-16.816 1.836-26.742-1.008-13.496-2.148-28.797 7.88-40.844 7.202-8.648 17.523-12.066 26.632-15.082 5.957-1.972 11.578-3.836 15.969-6.875a8.169 8.169 0 0111.36 2.07 8.16 8.16 0 01-2.067 11.356c-6.32 4.371-13.34 6.7-20.13 8.95-8.05 2.663-15.003 4.968-19.214 10.03-5.805 6.97-5.035 17.262-4.149 29.184.82 10.95 1.743 23.36-3.171 34.531-8.16 18.536-30.04 28.832-60.008 28.34l-1.219-.02c-6.18-.12-12.02-.234-15.773 2.239-2.028 1.34-3.907 3.816-5.582 7.367a41.3 41.3 0 00-3.813 20.953c.363 4.492-2.98 8.434-7.473 8.797-.23.02-.453.028-.675.028zm0 0M293.879 355.656c-.313 0-.629-.02-.945-.054-4.477-.52-7.692-4.567-7.176-9.047 1.433-12.399 2.91-25.227 7.945-37.532 5.961-14.574 16.442-25.613 28.746-30.277 8.535-3.238 17.414-3.469 26-3.691 10.14-.266 18.895-.493 24.867-5.48 7.067-5.895 7.914-16.364 8.891-28.485.879-10.871 1.79-22.113 7.41-32.106 6.613-11.746 18.91-20.175 37.598-25.773 3.48-1.04 7-1.969 10.41-2.867 9.441-2.489 18.363-4.84 25.996-9.356 8.629-5.105 16.285-15.168 14.227-24.523-.973-4.403 1.812-8.758 6.214-9.73a8.163 8.163 0 019.727 6.218c3.926 17.82-8.148 33.98-21.855 42.086-9.59 5.676-20.043 8.43-30.149 11.094-3.43.902-6.668 1.754-9.887 2.719-14.441 4.324-23.617 10.257-28.05 18.14-3.868 6.867-4.594 15.875-5.368 25.41-1.113 13.79-2.375 29.418-14.703 39.707-10.332 8.625-23.386 8.965-34.902 9.266-7.555.195-14.691.383-20.64 2.637-8.087 3.066-15.169 10.789-19.423 21.191-4.183 10.227-5.53 21.918-6.835 33.223a8.166 8.166 0 01-8.098 7.23zm0 0M343.828 156.523a8.165 8.165 0 01-7.992-6.543c-5.613-27.699 10.2-58.437 36-69.972 3.898-1.742 7.875-3.051 11.719-4.317 6.765-2.226 13.156-4.328 17.554-8.355 4.817-4.414 7.555-11.402 10.454-18.797 3.648-9.316 7.785-19.875 17.152-26.77 9.383-6.91 21.332-7.878 30.055-8.581 4.492-.36 8.433 2.984 8.796 7.476a8.162 8.162 0 01-7.48 8.793c-9.09.738-16.461 1.605-21.691 5.457-5.567 4.102-8.512 11.621-11.633 19.578-3.285 8.399-7.012 17.914-14.625 24.883-6.985 6.398-15.371 9.156-23.477 11.824-3.613 1.192-7.027 2.313-10.16 3.715-19.11 8.543-30.82 31.309-26.664 51.824a8.157 8.157 0 01-6.379 9.621c-.547.11-1.09.164-1.629.164zm0 0" fill="#9a92d2"/><path d="M350.68 2.254c-.985-1.984-3.477-2.828-5.47-1.84L315.97 14.945c-1.989.985-2.828 3.48-1.84 5.473l14.531 29.238c.988 1.992 3.477 2.828 5.469 1.84l29.242-14.531a4.08 4.08 0 001.84-5.469zm0 0M479.695 346.164l-24.484-21.601a4.081 4.081 0 00-5.762.363l-21.601 24.484a4.088 4.088 0 00.359 5.762l24.488 21.601c1.664 1.47 4.29 1.305 5.758-.363l21.602-24.484c1.468-1.664 1.308-4.29-.36-5.762zm0 0" fill="#ffe45c"/><path d="M171.727 61.684l-27.415-17.739a4.078 4.078 0 00-5.64 1.211L120.934 72.57a4.082 4.082 0 001.207 5.645l27.414 17.738c1.867 1.207 4.437.652 5.644-1.21l17.738-27.415a4.082 4.082 0 00-1.21-5.644zm0 0M314.34 177.785l-32.613-1.578c-2.22-.098-4.168 1.656-4.274 3.879l-1.578 32.617a4.074 4.074 0 003.879 4.27l32.613 1.582c2.219.097 4.164-1.657 4.274-3.883l1.578-32.613a4.082 4.082 0 00-3.88-4.274zm0 0M511.691 233.09l-12.433-30.195a4.082 4.082 0 00-5.328-2.22l-30.192 12.434c-2.05.844-3.066 3.27-2.218 5.328l12.43 30.192c.843 2.055 3.273 3.066 5.327 2.223l30.196-12.434a4.083 4.083 0 002.218-5.328zm0 0" fill="#eb6c8e"/></svg>