<svg height="512" viewBox="0 0 128 128" width="512" xmlns="http://www.w3.org/2000/svg"><path d="M62.922 126.25h-8c0-6.243 3.665-9.5 6.342-11.884 2.47-2.2 3.658-3.366 3.658-5.905s-1.188-3.709-3.658-5.907c-2.677-2.38-6.342-5.641-6.342-11.883s3.665-9.5 6.342-11.883c2.47-2.2 3.658-3.366 3.658-5.9s-1.188-3.706-3.658-5.9c-2.676-2.38-6.342-5.64-6.342-11.882s3.666-9.5 6.342-11.879c2.47-2.2 3.658-3.365 3.658-5.9s-1.188-3.707-3.658-5.9c-2.677-2.38-6.342-5.64-6.342-11.881s3.666-9.5 6.342-11.881c2.47-2.2 3.658-3.365 3.658-5.9h8c0 6.242-3.666 9.5-6.342 11.881-2.471 2.2-3.658 3.365-3.658 5.9s1.187 3.706 3.658 5.9c2.676 2.38 6.342 5.64 6.342 11.882s-3.666 9.5-6.343 11.88c-2.47 2.2-3.657 3.364-3.657 5.9s1.187 3.707 3.658 5.9c2.677 2.38 6.342 5.64 6.342 11.882s-3.665 9.5-6.342 11.883c-2.471 2.2-3.658 3.366-3.658 5.9s1.187 3.708 3.658 5.9c2.677 2.381 6.342 5.642 6.342 11.885s-3.665 9.5-6.342 11.884c-2.471 2.2-3.658 3.369-3.658 5.908z" fill="#fdbf00"/><path d="M101.648 90.671h-8c0-6.242 3.665-9.5 6.342-11.883 2.471-2.2 3.658-3.366 3.658-5.9s-1.187-3.706-3.658-5.9c-2.676-2.38-6.342-5.64-6.342-11.882s3.666-9.5 6.342-11.879c2.471-2.2 3.658-3.365 3.658-5.9s-1.187-3.707-3.658-5.9c-2.677-2.38-6.342-5.64-6.342-11.881s3.666-9.5 6.342-11.881c2.471-2.2 3.658-3.365 3.658-5.9h8c0 6.242-3.666 9.5-6.341 11.881-2.471 2.2-3.659 3.365-3.659 5.9s1.188 3.706 3.659 5.9c2.675 2.38 6.341 5.64 6.341 11.882s-3.666 9.5-6.342 11.88c-2.47 2.2-3.658 3.364-3.658 5.9s1.188 3.707 3.659 5.9c2.676 2.38 6.341 5.64 6.341 11.882s-3.665 9.5-6.341 11.883c-2.471 2.191-3.659 3.36-3.659 5.898zM34.2 90.671h-8c0-2.538-1.187-3.707-3.658-5.9-2.682-2.385-6.342-5.645-6.342-11.887S19.86 63.382 22.537 61c2.471-2.2 3.658-3.366 3.658-5.9s-1.187-3.7-3.657-5.9c-2.677-2.379-6.343-5.638-6.343-11.88s3.666-9.5 6.342-11.882c2.471-2.2 3.658-3.365 3.658-5.9s-1.187-3.706-3.658-5.9C19.861 11.251 16.2 7.992 16.2 1.75h8c0 2.537 1.188 3.706 3.658 5.9 2.676 2.38 6.342 5.639 6.342 11.881s-3.665 9.5-6.342 11.881c-2.47 2.2-3.658 3.365-3.658 5.9s1.188 3.7 3.658 5.9C30.529 45.6 34.2 48.856 34.2 55.1s-3.666 9.5-6.342 11.882c-2.47 2.2-3.658 3.366-3.658 5.9s1.188 3.707 3.658 5.9c2.672 2.387 6.342 5.647 6.342 11.889z" fill="#ffda2d"/><g fill="#979fef"><path d="M72.913 20.297l5.874-5.875 5.875 5.875-5.875 5.874zM87.152 109.77l5.874-5.875 5.874 5.875-5.874 5.874zM114.56 56.144l5.875-5.875 5.874 5.875-5.874 5.874zM9.396 103.887l5.874-5.874 5.875 5.874-5.875 5.875zM37.017 69.875l5.875-5.874 5.874 5.874-5.874 5.875z"/></g><path d="M87.172 54a5.719 5.719 0 11-5.719-5.719A5.718 5.718 0 0187.172 54zM50.277 34.275a5.719 5.719 0 11-5.718-5.718 5.718 5.718 0 015.718 5.718zM13.187 19.343a5.719 5.719 0 11-5.718-5.719 5.718 5.718 0 015.718 5.719zM46.462 108.734a5.719 5.719 0 11-5.719-5.719 5.719 5.719 0 015.719 5.719zM126.172 100.609a5.719 5.719 0 11-5.719-5.719 5.719 5.719 0 015.719 5.719z" fill="#ff7cb9"/></svg>