<svg xmlns="http://www.w3.org/2000/svg" xmlns:xlink="http://www.w3.org/1999/xlink" version="1.1" width="512" height="512" enable-background="new 0 0 512 512" xml:space="preserve"><rect id="backgroundrect" width="100%" height="100%" x="0" y="0" fill="none" stroke="none"/>

<g class="currentLayer" style=""><title>Layer 1</title><g id="svg_1" class="selected" fill="#ffffff" fill-opacity="1">
	<path d="M448.0493407444954,351.791 c-18.444,0 -33.4,14.952 -33.4,33.396 v52.055 H96.22934074449539 v-52.055 c0,-18.443 -14.952,-33.396 -33.396,-33.396 s-33.396,14.952 -33.396,33.396 v85.451 c0,18.443 14.952,33.4 33.396,33.4 h385.217 c18.443,0 33.396,-14.957 33.396,-33.4 v-85.451 C481.4463407444954,366.743 466.4933407444954,351.791 448.0493407444954,351.791 z" id="svg_2" fill="#ffffff" fill-opacity="1"/>
	<path d="M245.3593407444954,387.325 c5.563,5.559 14.6,5.559 20.157,0 l117.039,-117.038 c3.41,-3.41 4.423,-8.532 2.579,-13 c-1.844,-4.45 -6.18,-7.351 -11.012,-7.351 h-54.954 V34.024 c0,-14.402 -11.661,-26.063 -26.06,-26.063 h-75.323 c-14.398,0 -26.06,11.66 -26.06,26.063 v215.912 h-54.973 c-4.827,0 -9.163,2.9 -11.007,7.351 c-1.844,4.468 -0.8300000000000001,9.59 2.575,13 L245.3593407444954,387.325 z" id="svg_3" fill="#ffffff" fill-opacity="1"/>
</g></g></svg>