<svg xmlns="http://www.w3.org/2000/svg" xmlns:xlink="http://www.w3.org/1999/xlink" version="1.1" style="" xml:space="preserve" width="512" height="512"><rect id="backgroundrect" width="100%" height="100%" x="0" y="0" fill="none" stroke="none"/>

















<g class="currentLayer" style=""><title>Layer 1</title><g id="svg_1" class="" fill="#d9534f" fill-opacity="1">
	<g id="svg_2" fill="#d9534f" fill-opacity="1">
		<path d="M256,0C114.853,0,0,114.833,0,256s114.853,256,256,256c141.167,0,256-114.833,256-256S397.147,0,256,0z M256,472.341    c-119.295,0-216.341-97.046-216.341-216.341S136.705,39.659,256,39.659S472.341,136.705,472.341,256S375.295,472.341,256,472.341z    " id="svg_3" fill="#d9534f" fill-opacity="1"/>
	</g>
</g><g id="svg_4" class="" fill-opacity="1" fill="#d9534f">
	<g id="svg_5" fill="#d9534f">
		<path d="M355.148,234.386H156.852c-10.946,0-19.83,8.884-19.83,19.83s8.884,19.83,19.83,19.83h198.296    c10.946,0,19.83-8.884,19.83-19.83S366.094,234.386,355.148,234.386z" id="svg_6" fill="#d9534f"/>
	</g>
</g><g id="svg_7">
</g><g id="svg_8">
</g><g id="svg_9">
</g><g id="svg_10">
</g><g id="svg_11">
</g><g id="svg_12">
</g><g id="svg_13">
</g><g id="svg_14">
</g><g id="svg_15">
</g><g id="svg_16">
</g><g id="svg_17">
</g><g id="svg_18">
</g><g id="svg_19">
</g><g id="svg_20">
</g><g id="svg_21">
</g></g></svg>