<svg xmlns="http://www.w3.org/2000/svg" xmlns:xlink="http://www.w3.org/1999/xlink" version="1.1" style="enable-background:new 0 0 512 512;" xml:space="preserve" width="512" height="512"><rect id="backgroundrect" width="100%" height="100%" x="0" y="0" fill="none" stroke="none"/>

















<g class="currentLayer" style=""><title>Layer 1</title><g id="svg_1" class="" fill="#d9534f" fill-opacity="1">
	<g id="svg_2" fill="#d9534f" fill-opacity="1">
		<path d="M92.205,150l26.568,320.735C120.678,493.865,140.38,512,163.598,512h184.805c23.218,0,42.92-18.135,44.824-41.265    L419.795,150H92.205z M211,437c0,8.291-6.709,15-15,15s-15-6.709-15-15V195c0-8.291,6.709-15,15-15s15,6.709,15,15V437z M271,437    c0,8.291-6.709,15-15,15c-8.291,0-15-6.709-15-15V195c0-8.291,6.709-15,15-15s15,6.709,15,15V437z M331,437    c0,8.291-6.709,15-15,15c-8.291,0-15-6.709-15-15V195c0-8.291,6.709-15,15-15c8.291,0,15,6.709,15,15V437z" id="svg_3" fill="#d9534f" fill-opacity="1"/>
	</g>
</g><g id="svg_4" class="" fill="#d9534f" fill-opacity="1">
	<g id="svg_5" fill="#d9534f" fill-opacity="1">
		<path d="M406,59.49494951963425 h-75 V44.49494951963425 c0,-24.814 -20.186,-45 -45,-45 h-60 c-24.814,0 -45,20.186 -45,45 v15 h-75 c-24.853,0 -45,20.147 -45,45 c0,8.284 6.716,15 15,15 h360 c8.284,0 15,-6.716 15,-15 C451,79.64194951963425 430.853,59.49494951963425 406,59.49494951963425 zM301,59.49494951963425 h-90 V44.49494951963425 c0,-8.276 6.724,-15 15,-15 h60 c8.276,0 15,6.724 15,15 V59.49494951963425 z" id="svg_6" fill="#d9534f" fill-opacity="1"/>
	</g>
</g><g id="svg_7">
</g><g id="svg_8">
</g><g id="svg_9">
</g><g id="svg_10">
</g><g id="svg_11">
</g><g id="svg_12">
</g><g id="svg_13">
</g><g id="svg_14">
</g><g id="svg_15">
</g><g id="svg_16">
</g><g id="svg_17">
</g><g id="svg_18">
</g><g id="svg_19">
</g><g id="svg_20">
</g><g id="svg_21">
</g></g></svg>