<svg height="496pt" viewBox="0 0 496 496" width="496pt" xmlns="http://www.w3.org/2000/svg"><path d="m248 56c-106.039062 0-192 85.960938-192 192s85.960938 192 192 192 192-85.960938 192-192-85.960938-192-192-192zm-56 280h-32v-176h32zm136 0h-32v-176h32zm0 0" fill="#57a4ff"/><g fill="#004fac"><path d="m248 496c-136.964844 0-248-111.035156-248-248s111.035156-248 248-248 248 111.035156 248 248c-.160156 136.902344-111.097656 247.839844-248 248zm0-480c-128.128906 0-232 103.871094-232 232s103.871094 232 232 232 232-103.871094 232-232c-.140625-128.070312-103.929688-231.859375-232-232zm0 0"/><path d="m248 448c-110.457031 0-200-89.542969-200-200s89.542969-200 200-200 200 89.542969 200 200c-.125 110.40625-89.59375 199.875-200 200zm0-384c-101.621094 0-184 82.378906-184 184s82.378906 184 184 184 184-82.378906 184-184c-.113281-101.574219-82.425781-183.886719-184-184zm0 0"/><path d="m192 344h-32c-4.417969 0-8-3.582031-8-8v-176c0-4.417969 3.582031-8 8-8h32c4.417969 0 8 3.582031 8 8v176c0 4.417969-3.582031 8-8 8zm-24-16h16v-160h-16zm0 0"/><path d="m328 344h-32c-4.417969 0-8-3.582031-8-8v-176c0-4.417969 3.582031-8 8-8h32c4.417969 0 8 3.582031 8 8v176c0 4.417969-3.582031 8-8 8zm-24-16h16v-160h-16zm0 0"/></g></svg>