<?xml version="1.0" encoding="UTF-8" standalone="no"?>
<!DOCTYPE svg PUBLIC "-//W3C//DTD SVG 1.1//EN" "http://www.w3.org/Graphics/SVG/1.1/DTD/svg11.dtd">
<svg version="1.1" xmlns="http://www.w3.org/2000/svg" xmlns:xlink="http://www.w3.org/1999/xlink" preserveAspectRatio="xMidYMid meet" viewBox="0 0 640 640" width="640" height="640"><defs><path d="M74.01 0C33.2 0 0 33.2 0 74.01C0 88.71 0 206.29 0 220.99C0 261.8 33.2 295 74.01 295C88.71 295 206.29 295 220.99 295C261.8 295 295 261.8 295 220.99C295 206.29 295 88.71 295 74.01C295 33.2 261.8 0 220.99 0C191.59 0 88.71 0 74.01 0ZM220.99 245C206.29 245 88.71 245 74.01 245C60.77 245 50 234.23 50 220.99C50 206.29 50 88.71 50 74.01C50 60.77 60.77 50 74.01 50C88.71 50 206.29 50 220.99 50C234.23 50 245 60.77 245 74.01C245 83.81 245 132.8 245 220.99C237.82 237 229.82 245 220.99 245Z" id="agpZkXbB6"></path><path d="M420 0C378.65 0 345 33.65 345 75C345 89.5 345 205.5 345 220C345 261.36 378.65 295 420 295C434.5 295 550.5 295 565 295C606.36 295 640 261.36 640 220C640 205.5 640 89.5 640 75C640 33.65 606.36 0 565 0C536 0 434.5 0 420 0ZM565 245C550.5 245 434.5 245 420 245C406.22 245 395 233.79 395 220C395 205.5 395 89.5 395 75C395 61.22 406.22 50 420 50C434.5 50 550.5 50 565 50C578.79 50 590 61.22 590 75C590 84.67 590 133 590 220C582.52 236.67 574.19 245 565 245Z" id="e19lwgavq0"></path><path d="M74.01 345C33.2 345 0 378.2 0 419.01C0 433.71 0 551.29 0 565.99C0 606.8 33.2 640 74.01 640C88.71 640 206.29 640 220.99 640C261.8 640 295 606.8 295 565.99C295 551.29 295 433.71 295 419.01C295 378.2 261.8 345 220.99 345C191.59 345 88.71 345 74.01 345ZM220.99 590C206.29 590 88.71 590 74.01 590C60.77 590 50 579.23 50 565.99C50 551.29 50 433.71 50 419.01C50 405.77 60.77 395 74.01 395C88.71 395 206.29 395 220.99 395C234.23 395 245 405.77 245 419.01C245 428.81 245 477.8 245 565.99C237.82 582 229.82 590 220.99 590Z" id="c2OLvBc9rq"></path><path d="M420 345C378.65 345 345 378.65 345 420C345 434.5 345 550.5 345 565C345 606.36 378.65 640 420 640C434.5 640 550.5 640 565 640C606.36 640 640 606.36 640 565C640 550.5 640 434.5 640 420C640 378.65 606.36 345 565 345C536 345 434.5 345 420 345ZM565 590C550.5 590 434.5 590 420 590C406.22 590 395 578.79 395 565C395 550.5 395 434.5 395 420C395 406.22 406.22 395 420 395C434.5 395 550.5 395 565 395C578.79 395 590 406.22 590 420C590 429.67 590 478 590 565C582.52 581.67 574.19 590 565 590Z" id="cj6UIjufY"></path></defs><g><g><g><use xlink:href="#agpZkXbB6" opacity="1" fill="#ffffff" fill-opacity="1"></use><g><use xlink:href="#agpZkXbB6" opacity="1" fill-opacity="0" stroke="#000000" stroke-width="1" stroke-opacity="0"></use></g></g><g><use xlink:href="#e19lwgavq0" opacity="1" fill="#ffffff" fill-opacity="1"></use><g><use xlink:href="#e19lwgavq0" opacity="1" fill-opacity="0" stroke="#000000" stroke-width="1" stroke-opacity="0"></use></g></g><g><use xlink:href="#c2OLvBc9rq" opacity="1" fill="#ffffff" fill-opacity="1"></use><g><use xlink:href="#c2OLvBc9rq" opacity="1" fill-opacity="0" stroke="#000000" stroke-width="1" stroke-opacity="0"></use></g></g><g><use xlink:href="#cj6UIjufY" opacity="1" fill="#ffffff" fill-opacity="1"></use><g><use xlink:href="#cj6UIjufY" opacity="1" fill-opacity="0" stroke="#000000" stroke-width="1" stroke-opacity="0"></use></g></g></g></g></svg>