<svg width="435.2" height="435.2" xmlns="http://www.w3.org/2000/svg">

 <g>
  <title>background</title>
  <rect fill="none" id="canvas_background" height="602" width="802" y="-1" x="-1"/>
 </g>
 <g>
  <title>Layer 1</title>
  <g id="svg_1">
   <g id="svg_2">
    <path fill="#ffffff" id="svg_3" d="m356.864,224.768c0,-8.704 -6.656,-15.36 -15.36,-15.36s-15.36,6.656 -15.36,15.36c0,59.904 -48.64,108.544 -108.544,108.544c-59.904,0 -108.544,-48.64 -108.544,-108.544c0,-8.704 -6.656,-15.36 -15.36,-15.36c-8.704,0 -15.36,6.656 -15.36,15.36c0,71.168 53.248,131.072 123.904,138.752l0,40.96l-55.808,0c-8.704,0 -15.36,6.656 -15.36,15.36s6.656,15.36 15.36,15.36l142.336,0c8.704,0 15.36,-6.656 15.36,-15.36s-6.656,-15.36 -15.36,-15.36l-55.808,0l0,-40.96c70.656,-7.68 123.904,-67.584 123.904,-138.752z"/>
   </g>
  </g>
  <g id="svg_4">
   <g id="svg_5">
    <path fill="#ffffff" id="svg_6" d="m217.6,0c-47.104,0 -85.504,38.4 -85.504,85.504l0,138.752c0,47.616 38.4,85.504 85.504,86.016c47.104,0 85.504,-38.4 85.504,-85.504l0,-139.264c0,-47.104 -38.4,-85.504 -85.504,-85.504z"/>
   </g>
  </g>
  <g id="svg_7"/>
  <g id="svg_8"/>
  <g id="svg_9"/>
  <g id="svg_10"/>
  <g id="svg_11"/>
  <g id="svg_12"/>
  <g id="svg_13"/>
  <g id="svg_14"/>
  <g id="svg_15"/>
  <g id="svg_16"/>
  <g id="svg_17"/>
  <g id="svg_18"/>
  <g id="svg_19"/>
  <g id="svg_20"/>
  <g id="svg_21"/>
 </g>
</svg>