<svg width="512" height="512" xmlns="http://www.w3.org/2000/svg">

 <g>
  <title>background</title>
  <rect fill="none" id="canvas_background" height="602" width="802" y="-1" x="-1"/>
 </g>
 <g>
  <title>Layer 1</title>
  <g id="svg_1">
   <g id="svg_2">
    <path fill="#ffffff" id="svg_3" d="m380.032,133.472l-112,-128c-3.04,-3.456 -7.424,-5.472 -12.032,-5.472c-4.608,0 -8.992,2.016 -12.032,5.472l-112,128c-4.128,4.736 -5.152,11.424 -2.528,17.152c2.592,5.696 8.288,9.376 14.56,9.376l64,0l0,208c0,8.832 7.168,16 16,16l64,0c8.832,0 16,-7.168 16,-16l0,-208l64,0c6.272,0 11.968,-3.648 14.56,-9.376c2.592,-5.728 1.632,-12.448 -2.528,-17.152z"/>
   </g>
  </g>
  <g id="svg_4">
   <g id="svg_5">
    <path fill="#ffffff" id="svg_6" d="m432,352l0,96l-352,0l0,-96l-64,0l0,128c0,17.696 14.336,32 32,32l416,0c17.696,0 32,-14.304 32,-32l0,-128l-64,0z"/>
   </g>
  </g>
  <g id="svg_7"/>
  <g id="svg_8"/>
  <g id="svg_9"/>
  <g id="svg_10"/>
  <g id="svg_11"/>
  <g id="svg_12"/>
  <g id="svg_13"/>
  <g id="svg_14"/>
  <g id="svg_15"/>
  <g id="svg_16"/>
  <g id="svg_17"/>
  <g id="svg_18"/>
  <g id="svg_19"/>
  <g id="svg_20"/>
  <g id="svg_21"/>
 </g>
</svg>