<svg height="511pt" viewBox="0 0 511 511.989" width="511pt" xmlns="http://www.w3.org/2000/svg"><path d="M286.703 202.578a15.876 15.876 0 01-6.125 3.79l-9.633 3.206a15.61 15.61 0 01-9.918 0l-7.586-2.558a15.704 15.704 0 00-10.964.394l-26.063 10.809-60.781 25.226-69.395 28.758c-17.277 7.16-34.824 13.883-51.906 21.52-6.59 2.945-14.652 4.453-18.894 10.933a15.863 15.863 0 00-1.954 12.235 21.279 21.279 0 0010.887 13.254 57.67 57.67 0 0028.016 3.59h108.11l8.944 10.242 2.43 3.191v133.246a25.613 25.613 0 0014.387 20.55c13.656 6.825 25.355-1.433 30.43-14.226 12.316-31.035 25.437-61.816 38.238-92.68l38.578-93.015 12.469-30.105a15.703 15.703 0 00.394-10.965l-2.562-7.586a15.761 15.761 0 010-9.914l3.218-9.633a15.679 15.679 0 013.79-6.13" fill="#c03a2b"/><path d="M200.219 337.328L434.938 102.66l4.078-4.078a15.678 15.678 0 0118.101-2.934 15.698 15.698 0 0011.973.852 15.699 15.699 0 009.07-7.867l24.13-48.274a15.666 15.666 0 00-2.935-18.097l-4.078-4.078-4.078-4.082a15.685 15.685 0 00-18.101-2.934l-48.274 24.098a15.669 15.669 0 00-7.863 9.07 15.663 15.663 0 00.851 11.973 15.678 15.678 0 01-2.937 18.109l-4.07 4.07-234.72 234.676zm0 0" fill="#cbb292"/><g fill="#fff"><path d="M265.984 280.105a8.537 8.537 0 01-6.03-2.5l-24.142-24.175a8.538 8.538 0 01.102-11.965 8.538 8.538 0 0111.965-.102l24.14 24.14a8.535 8.535 0 01-6.035 14.567zm0 0M241.844 304.234a8.52 8.52 0 01-6.031-2.5l-24.133-24.129a8.534 8.534 0 0112.066-12.066l24.133 24.133a8.53 8.53 0 01-6.035 14.563zm0 0M217.71 328.367a8.471 8.471 0 01-6.03-2.5l-24.133-24.133a8.536 8.536 0 01-2.328-8.296 8.535 8.535 0 0114.394-3.766l24.133 24.129a8.535 8.535 0 01-6.035 14.566zm0 0M214.18 428.45c0 4.71-3.82 8.53-8.532 8.53a8.533 8.533 0 110-17.066c4.711 0 8.532 3.82 8.532 8.535zm0 0M226.246 392.25c0 4.71-3.82 8.531-8.535 8.531a8.532 8.532 0 01-8.531-8.531 8.533 8.533 0 1117.066 0zm0 0M238.313 356.043c0 4.71-3.82 8.531-8.536 8.531a8.532 8.532 0 01-8.53-8.531 8.533 8.533 0 1117.065 0zm0 0"/></g><path d="M373.496 289.594a36.324 36.324 0 01-25.402-10.934c-13.207-11.71-14.551-31.863-3.012-45.226 13.36-11.54 33.516-10.2 45.227 3.015 13.207 11.711 14.55 31.864 3.011 45.227a27.682 27.682 0 01-19.824 7.918zm0 0" fill="#2fa8cc"/><path d="M444.64 335.46a8.533 8.533 0 01-6.035-14.565l54.31-54.297c1.6-1.602 2.5-3.774 2.5-6.04s-.9-4.437-2.5-6.038l-30.169-30.165a8.526 8.526 0 00-12.074 0l-54.297 54.305a8.534 8.534 0 11-12.074-12.062l54.304-54.309a25.602 25.602 0 0136.207 0l30.168 30.164a25.614 25.614 0 017.497 18.106c0 6.789-2.696 13.3-7.497 18.101l-54.308 54.309a8.536 8.536 0 01-6.031 2.492zm0 0" fill="#2fa8cc"/><path d="M427.848 343.95c-.973 0-1.957-.044-2.961-.137-17.516-2-31.332-15.817-33.332-33.329a27.44 27.44 0 0130.61-30.602c17.51 2 31.323 15.821 33.32 33.333a27.956 27.956 0 01-7.833 22.773 27.509 27.509 0 01-19.804 7.961zm0 0M65.973 177.176a8.537 8.537 0 01-6.032-2.5L6.656 121.383A21.054 21.054 0 01.88 102.5 21.05 21.05 0 0113.28 87.133l25.2-10.813a8.53 8.53 0 0112.011 8.84 8.539 8.539 0 01-5.297 6.844L19.97 102.816a4 4 0 00-1.246 6.5l53.285 53.293a8.535 8.535 0 01-6.035 14.567zm0 0" fill="#2fa8cc"/><path d="M46.559 221.855a27.563 27.563 0 01-19.805-7.96 27.992 27.992 0 01-7.832-22.758c2.008-17.508 15.82-31.32 33.328-33.325a28.058 28.058 0 0122.77 7.825 27.96 27.96 0 017.832 22.777 36.763 36.763 0 01-10.844 22.477 36.742 36.742 0 01-22.48 10.843c-.997.121-1.977.121-2.97.121zm0 0" fill="#2fa8cc"/><path d="M192.309 104.95a8.533 8.533 0 01-8.532-8.536V21.066a21.052 21.052 0 019.25-17.445 21.062 21.062 0 0119.633-2.113l25.488 10.187a8.534 8.534 0 015.278 6.707 8.542 8.542 0 01-3.168 7.926 8.543 8.543 0 01-8.45 1.215l-25.48-10.188a3.924 3.924 0 00-3.719.399 3.865 3.865 0 00-1.765 3.312v75.348a8.534 8.534 0 01-8.535 8.535zm0 0" fill="#e57e25"/><path d="M166.71 130.55c-17.64 1.075-32.858-12.241-34.136-29.866 1.274-17.63 16.496-30.95 34.137-29.868 17.637-1.082 32.86 12.239 34.133 29.868-1.274 17.625-16.496 30.945-34.133 29.867zm0 0" fill="#e57e25"/><path d="M179.68 187.723a8.536 8.536 0 01-8.535-8.536V153.59a8.536 8.536 0 0117.07 0v25.597a8.536 8.536 0 01-8.535 8.536zm0 0M146.578 192.508a8.52 8.52 0 01-6.031-2.5l-18.102-18.106a8.534 8.534 0 0112.066-12.066l18.102 18.105a8.542 8.542 0 011.848 9.301 8.53 8.53 0 01-7.883 5.266zm0 0M137.012 221.855h-25.598a8.534 8.534 0 110-17.066h25.598a8.533 8.533 0 110 17.066zm0 0M358.879 341.32H333.28a8.533 8.533 0 110-17.066h25.598a8.534 8.534 0 110 17.066zm0 0M346.602 392.523a8.546 8.546 0 01-6.036-2.5l-18.105-18.101a8.534 8.534 0 0112.066-12.067l18.106 18.102a8.52 8.52 0 011.847 9.297 8.538 8.538 0 01-7.878 5.27zm0 0M299.145 409.59a8.533 8.533 0 01-8.532-8.535v-25.598a8.533 8.533 0 1117.067 0v25.598a8.534 8.534 0 01-8.535 8.535zm0 0" fill="#2fa8cc"/><path d="M467.254 511.988a8.534 8.534 0 01-7.067-3.75 8.536 8.536 0 01-.851-7.957l10.187-25.48a4.002 4.002 0 00-.402-3.73 4.003 4.003 0 00-3.32-1.75h-75.348a8.533 8.533 0 110-17.067h75.348a21.06 21.06 0 0119.558 28.887l-10.187 25.488a8.53 8.53 0 01-7.918 5.36zm0 0" fill="#e57e25"/><path d="M386.188 469.32c-17.094-2.297-29.852-16.882-29.852-34.132 0-17.247 12.758-31.833 29.851-34.133 17.094 2.3 29.852 16.886 29.852 34.132 0 17.25-12.758 31.836-29.851 34.133zm0 0" fill="#e57e25"/></svg>