<svg height="512" viewBox="0 0 512 512" width="512" xmlns="http://www.w3.org/2000/svg"><g><g><path d="M64.709 155.432C29.029 155.432 0 126.403 0 90.723s29.028-64.708 64.708-64.708 64.708 29.028 64.708 64.708-29.027 64.709-64.707 64.709z" fill="#2b2256"/></g><g><g><path d="M15 485.755c-3.88 0-7.618-1.503-10.418-4.205A14.971 14.971 0 010 470.771v-76.262c0-71.576 58.292-129.807 129.942-129.807s129.942 58.231 129.942 129.807v76.207c0 8.072-6.4 14.693-14.475 14.975L15 485.755z" fill="#ff405c"/></g></g><g><path d="M175.72 294.789a15 15 0 00-9.162-9.347L56.824 246.139a15 15 0 00-16.59 23.712l75.824 91.174a14.997 14.997 0 0024.088-1.384l33.91-51.872a14.998 14.998 0 001.664-12.98z" fill="#d0004f"/></g><g><g><g><path d="M497 485.985H270.276a15 15 0 01-13.963-9.52l-3.162-8.055a15.002 15.002 0 01-1.037-5.48v-68.287c0-71.65 58.292-129.942 129.942-129.942S512 322.994 512 394.644v76.341c0 8.285-6.716 15-15 15z" fill="#00ab94"/></g></g></g><path clip-rule="evenodd" d="M382.057 225.662c16.895 0 30.718 13.823 30.718 30.718v64.834c0 16.895-13.823 30.718-30.718 30.718s-30.718-13.823-30.718-30.718V256.38c.001-16.895 13.823-30.718 30.718-30.718z" fill="#a34f3e" fill-rule="evenodd"/><path d="M382.058 366.932c-25.209 0-45.718-20.509-45.718-45.718V256.38c0-25.209 20.509-45.718 45.718-45.718s45.718 20.509 45.718 45.718v64.834c-.001 25.209-20.509 45.718-45.718 45.718zm0-126.27c-8.667 0-15.718 7.051-15.718 15.718v64.834c0 8.667 7.051 15.718 15.718 15.718s15.718-7.051 15.718-15.718V256.38c-.001-8.667-7.051-15.718-15.718-15.718z" fill="#007769"/><g><g><path d="M382.058 314.897c-64.879 0-117.663-52.783-117.663-117.663 0-5.634.398-11.177 1.168-16.602 8.091-57.047 223.282-58.481 232.559-2.8a117.975 117.975 0 011.599 19.402c0 64.88-52.783 117.663-117.663 117.663z" fill="#bb5d4c"/></g></g><g><path d="M382.058 79.571c-55.748 0-102.565 38.972-114.64 91.102l13.173 11.148a15 15 0 009.69 3.55h208.844c-5.967-59.329-56.191-105.8-117.067-105.8z" fill="#ff8856"/></g><g><g><path d="M129.943 314.897c-64.879 0-117.663-52.783-117.663-117.663 0-4.14.215-8.23.634-12.261 6.151-59.139 219.818-66.244 231.754-13.926a117.613 117.613 0 012.937 26.187c0 64.88-52.783 117.663-117.662 117.663z" fill="#c86e59"/></g></g><g><path d="M129.943 79.571c-64.462 0-116.974 52.109-117.647 116.415 12.237 2.787 25.072 4.217 38.205 4.217 34.547 0 66.211-9.689 87.824-26.414 21.613 16.725 53.277 26.414 87.824 26.414 7.249 0 14.41-.445 21.435-1.3.008-.556.021-1.111.021-1.668 0-64.88-52.783-117.664-117.662-117.664z" fill="#392e6e"/></g><g><g><path d="M380.691 485.736H131.309c-8.284 0-15-6.716-15-15v-89.421c0-77.026 62.666-139.691 139.691-139.691s139.691 62.666 139.691 139.691v89.421c0 8.285-6.716 15-15 15z" fill="#7dd5f4"/></g></g><path d="M256 241.624v244.112h124.691c8.284 0 15-6.716 15-15v-89.421c0-77.025-62.665-139.691-139.691-139.691z" fill="#4793ff"/><path clip-rule="evenodd" d="M256 198.002c18.328 0 33.323 14.995 33.323 33.323v70.333c0 18.328-14.995 33.323-33.323 33.323-18.328 0-33.323-14.995-33.323-33.323v-70.333c0-18.328 14.995-33.323 33.323-33.323z" fill="#fdd1a3" fill-rule="evenodd"/><path clip-rule="evenodd" d="M256 198.001V334.98c18.328 0 33.323-14.995 33.323-33.323v-70.333c0-18.327-14.995-33.322-33.323-33.323z" fill="#ffbb85" fill-rule="evenodd"/><path d="M256 349.98c-26.645 0-48.323-21.678-48.323-48.323v-70.333c0-26.645 21.678-48.323 48.323-48.323 26.646 0 48.323 21.678 48.323 48.323v70.333c0 26.646-21.678 48.323-48.323 48.323zm0-136.979c-10.103 0-18.323 8.22-18.323 18.323v70.333c0 10.104 8.22 18.323 18.323 18.323 10.104 0 18.323-8.22 18.323-18.323v-70.333c0-10.103-8.22-18.323-18.323-18.323z" fill="#4793ff"/><path d="M256 183.001v30c10.103 0 18.323 8.22 18.323 18.323v70.333c0 10.103-8.22 18.323-18.323 18.323v30c26.645 0 48.323-21.678 48.323-48.323v-70.333c0-26.645-21.678-48.322-48.323-48.323z" fill="#525cdd"/><g><g><path d="M256 293.532c-69.681 0-126.37-56.689-126.37-126.37 0-6.875.552-13.623 1.614-20.204 9.699-60.112 240.133-59.83 249.601.552a126.843 126.843 0 011.526 19.652c-.001 69.681-56.69 126.37-126.371 126.37z" fill="#ffe4c1"/></g></g><path d="M380.844 147.51c-4.737-30.213-64.796-45.378-124.844-45.461v191.482c69.681 0 126.37-56.689 126.37-126.37 0-6.682-.521-13.245-1.526-19.651z" fill="#fdd1a3"/><g><path d="M256 40.792c-68.935 0-125.146 55.485-126.342 124.14h131.889c3.425 0 6.746-1.172 9.413-3.321l13.152-10.6 5.657 7.758a15 15 0 0012.12 6.163h80.454C381.146 96.277 324.935 40.792 256 40.792z" fill="#ffde46"/></g><path d="M256 40.792v124.14h5.547c3.425 0 6.746-1.172 9.413-3.321l13.152-10.6 5.657 7.758a15 15 0 0012.12 6.163h80.454C381.146 96.277 324.935 40.792 256 40.792z" fill="#ffcd00"/></g></svg>