<svg xmlns="http://www.w3.org/2000/svg" viewBox="0 0 60 50" width="512" height="512"><g><path d="M16 33c-2.206 0-4-1.794-4-4s1.794-4 4-4 4 1.794 4 4-1.794 4-4 4zm0-6c-1.103 0-2 .897-2 2s.897 2 2 2 2-.897 2-2-.897-2-2-2zM26 29c-2.206 0-4-1.794-4-4s1.794-4 4-4 4 1.794 4 4-1.794 4-4 4zm0-6c-1.103 0-2 .897-2 2s.897 2 2 2 2-.897 2-2-.897-2-2-2z"/><path d="M19 30a1 1 0 01-1-1V14a1 1 0 012 0v15a1 1 0 01-1 1zM29 26a1 1 0 01-1-1V10a1 1 0 012 0v15a1 1 0 01-1 1z"/><path d="M19 19a.999.999 0 01-1-1v-4c0-.409.249-.776.629-.929l10-4A.998.998 0 0130 10v4c0 .409-.249.776-.629.929l-10 4A.998.998 0 0119 19zm1-4.323v1.846l8-3.2v-1.846l-8 3.2zM38 39c-2.206 0-4-1.794-4-4s1.794-4 4-4 4 1.794 4 4-1.794 4-4 4zm0-6c-1.103 0-2 .897-2 2s.897 2 2 2 2-.897 2-2-.897-2-2-2z"/><path d="M41 36a1 1 0 01-1-1V20a1 1 0 012 0v15a1 1 0 01-1 1z"/><path d="M41 25a.999.999 0 01-1-1v-4c0-.409.249-.776.629-.929l10-4A1 1 0 0152 16v4c0 .409-.249.776-.629.929l-10 4A.998.998 0 0141 25zm1-4.323v1.846l8-3.2v-1.846l-8 3.2z"/><path d="M59 50H1a1 1 0 01-1-1V1a1 1 0 011-1h58a1 1 0 011 1v48a1 1 0 01-1 1zM2 48h56V2H2v46z"/><path d="M15 18H1a1 1 0 010-2h14a1 1 0 010 2zM39 18h-5a1 1 0 010-2h5a1 1 0 010 2zM59 18h-4a1 1 0 010-2h4a1 1 0 010 2zM59 34H45a1 1 0 010-2h14a1 1 0 010 2zM31 34h-9a1 1 0 010-2h9a1 1 0 010 2zM10 34H1a1 1 0 010-2h9a1 1 0 010 2z"/><path d="M6 50H1a1 1 0 01-1-1V1a1 1 0 011-1h5a1 1 0 011 1v48a1 1 0 01-1 1zm-4-2h3V2H2v46z"/></g></svg>