<svg xmlns="http://www.w3.org/2000/svg" xmlns:xlink="http://www.w3.org/1999/xlink" version="1.1" style="" xml:space="preserve" width="409.806" height="409.806"><rect id="backgroundrect" width="100%" height="100%" x="0" y="0" fill="none" stroke="none"/>
















<g class="currentLayer" style=""><title>Layer 1</title><g id="svg_1" class="selected" fill="#ffffff" fill-opacity="1">
	<g id="svg_2" fill="#ffffff" fill-opacity="1">
		<path d="M228.929,205.01L404.596,29.343c6.78-6.548,6.968-17.352,0.42-24.132c-6.548-6.78-17.352-6.968-24.132-0.42    c-0.142,0.137-0.282,0.277-0.42,0.42L204.796,180.878L29.129,5.21c-6.78-6.548-17.584-6.36-24.132,0.42    c-6.388,6.614-6.388,17.099,0,23.713L180.664,205.01L4.997,380.677c-6.663,6.664-6.663,17.468,0,24.132    c6.664,6.662,17.468,6.662,24.132,0l175.667-175.667l175.667,175.667c6.78,6.548,17.584,6.36,24.132-0.42    c6.387-6.614,6.387-17.099,0-23.712L228.929,205.01z" id="svg_3" fill="#ffffff" fill-opacity="1"/>
	</g>
</g><g id="svg_4">
</g><g id="svg_5">
</g><g id="svg_6">
</g><g id="svg_7">
</g><g id="svg_8">
</g><g id="svg_9">
</g><g id="svg_10">
</g><g id="svg_11">
</g><g id="svg_12">
</g><g id="svg_13">
</g><g id="svg_14">
</g><g id="svg_15">
</g><g id="svg_16">
</g><g id="svg_17">
</g><g id="svg_18">
</g></g></svg>