<svg id="Capa_1" enable-background="new 0 0 512 512" height="512" viewBox="0 0 512 512" width="512" xmlns="http://www.w3.org/2000/svg"><path d="m331 0h-225c-24.853 0-45 20.147-45 45v422c0 24.853 20.147 45 45 45h300c24.853 0 45-20.147 45-45v-347z" fill="#e4f2f9"/><path d="m331 0h-75v512h150c24.853 0 45-20.147 45-45v-347z" fill="#bde0f1"/><path d="m331 0v105c0 8.284 6.716 15 15 15h105z" fill="#77bee2"/><path d="m360.881 174.714c-3.253-2.848-7.577-4.151-11.863-3.583l-150 20c-7.453.994-13.018 7.351-13.018 14.869v147.58c-4.695-1.665-9.742-2.58-15-2.58-24.813 0-45 20.187-45 45s20.187 45 45 45 45-20.187 45-45v-116.867l120-16v70.447c-4.695-1.665-9.742-2.58-15-2.58-24.813 0-45 20.187-45 45s20.187 45 45 45 45-20.187 45-45v-190c0-4.324-1.866-8.437-5.119-11.286z" fill="#49bbff"/><path d="m360.881 174.714c-3.253-2.848-7.577-4.151-11.863-3.583l-93.018 12.403v90.266l80-10.667v70.447c-4.695-1.665-9.742-2.58-15-2.58-24.813 0-45 20.187-45 45s20.187 45 45 45 45-20.187 45-45v-190c0-4.324-1.866-8.437-5.119-11.286z" fill="#0097ff"/></svg>