<svg xmlns="http://www.w3.org/2000/svg" viewBox="0 0 286.054 286.054" width="286" height="286"><g fill="#e2574c"><path d="M143.027 98.327c24.69 0 44.696 20.006 44.696 44.696s-20.006 44.696-44.696 44.696-44.696-20.006-44.696-44.696 20.006-44.696 44.696-44.696z"/><path d="M143.027.004C64.031.004 0 64.036 0 143.022c0 78.996 64.031 143.027 143.027 143.027s143.027-64.031 143.027-143.027C286.054 64.045 222.022.004 143.027.004zm0 259.228c-64.183 0-116.209-52.026-116.209-116.209s52.026-116.21 116.209-116.21 116.209 52.026 116.209 116.209-52.026 116.21-116.209 116.21z"/></g></svg>