<svg xmlns="http://www.w3.org/2000/svg" xmlns:xlink="http://www.w3.org/1999/xlink" version="1.1" style="" xml:space="preserve" width="142.448" height="142.448"><rect id="backgroundrect" width="100%" height="100%" x="0" y="0" fill="none" stroke="none"/>
















<g class="currentLayer" style=""><title>Layer 1</title><g id="svg_1" class="selected" fill="#04b804" fill-opacity="1">
	<path style="" d="M142.411,68.9C141.216,31.48,110.968,1.233,73.549,0.038c-20.361-0.646-39.41,7.104-53.488,21.639   C6.527,35.65-0.584,54.071,0.038,73.549c1.194,37.419,31.442,67.667,68.861,68.861c0.779,0.025,1.551,0.037,2.325,0.037   c19.454,0,37.624-7.698,51.163-21.676C135.921,106.799,143.033,88.377,142.411,68.9z M111.613,110.336   c-10.688,11.035-25.032,17.112-40.389,17.112c-0.614,0-1.228-0.01-1.847-0.029c-29.532-0.943-53.404-24.815-54.348-54.348   c-0.491-15.382,5.122-29.928,15.806-40.958c10.688-11.035,25.032-17.112,40.389-17.112c0.614,0,1.228,0.01,1.847,0.029   c29.532,0.943,53.404,24.815,54.348,54.348C127.91,84.76,122.296,99.306,111.613,110.336z" id="svg_2" fill="#04b804" fill-opacity="1"/>
	<path style="" d="M94.585,67.086L63.001,44.44c-3.369-2.416-8.059-0.008-8.059,4.138v45.293   c0,4.146,4.69,6.554,8.059,4.138l31.583-22.647C97.418,73.331,97.418,69.118,94.585,67.086z" id="svg_3" fill="#04b804" fill-opacity="1"/>
</g><g id="svg_4">
</g><g id="svg_5">
</g><g id="svg_6">
</g><g id="svg_7">
</g><g id="svg_8">
</g><g id="svg_9">
</g><g id="svg_10">
</g><g id="svg_11">
</g><g id="svg_12">
</g><g id="svg_13">
</g><g id="svg_14">
</g><g id="svg_15">
</g><g id="svg_16">
</g><g id="svg_17">
</g><g id="svg_18">
</g></g></svg>