<svg xmlns="http://www.w3.org/2000/svg" width="512" height="512" style=""><rect id="backgroundrect" width="100%" height="100%" x="0" y="0" fill="none" stroke="none"/><g class="currentLayer" style=""><title>Layer 1</title><path d="M479.492,318.447a233.557,233.557,0,0,1-82.025,121.445A232.008,232.008,0,0,1,24,256,231.861,231.861,0,0,1,421.839,93.807l-2.976,53.576-18.549-5.456a184.564,184.564,0,0,0-32.139-31.792A182.241,182.241,0,0,0,256,72C154.542,72,72,154.542,72,256s82.542,184,184,184a182.236,182.236,0,0,0,112.174-38.135,185.25,185.25,0,0,0,65.083-96.312,24,24,0,1,1,46.235,12.894Zm-9.652-98.84a24,24,0,0,0,10.123-18.276l8-144a24,24,0,1,0-47.924-2.662l-6.32,113.761L326.777,136.976a24,24,0,1,0-13.543,46.048l136,40a23.991,23.991,0,0,0,20.611-3.417Z" id="svg_1" class="selected" fill="#ffc107" fill-opacity="1" transform="rotate(-90 256.0066223144532,255.92462158203128) "/></g></svg>