<svg height="368pt" viewBox="0 0 368 368" width="368pt" xmlns="http://www.w3.org/2000/svg"><path d="m184 8c-97.199219 0-176 78.800781-176 176s78.800781 176 176 176 176-78.800781 176-176-78.800781-176-176-176zm-48 256v-160l128 80zm0 0" fill="#cce4ff"/><g fill="#007aff"><path d="m184 0c-101.457031 0-184 82.542969-184 184s82.542969 184 184 184 184-82.542969 184-184-82.542969-184-184-184zm0 352c-92.640625 0-168-75.359375-168-168s75.359375-168 168-168 168 75.359375 168 168-75.359375 168-168 168zm0 0"/><path d="m268.238281 177.214844-128-80c-2.46875-1.542969-5.574219-1.628906-8.117187-.207032-2.546875 1.40625-4.121094 4.082032-4.121094 6.992188v160c0 2.910156 1.574219 5.585938 4.121094 7 1.214844.664062 2.542968 1 3.878906 1 1.472656 0 2.945312-.40625 4.238281-1.214844l128-80c2.335938-1.464844 3.761719-4.023437 3.761719-6.785156s-1.425781-5.320312-3.761719-6.785156zm-124.238281 72.351562v-131.132812l104.902344 65.566406zm0 0"/></g></svg>