<svg height="512" viewBox="0 0 512 512" width="512" xmlns="http://www.w3.org/2000/svg"><g><path d="M512 106.7v298.6c0 16.57-13.43 30-30 30H30c-16.57 0-30-13.43-30-30V106.7c0-16.57 13.43-30 30-30h452c16.57 0 30 13.43 30 30z" fill="#eaf6ff"/><path d="M82.41 435.3H30c-16.57 0-30-13.43-30-30V106.7c0-16.57 13.43-30 30-30h52.41c-17.07 0-30.9 13.84-30.9 30.9v296.8c0 17.06 13.83 30.9 30.9 30.9z" fill="#d8ecfe"/><circle cx="177.809" cy="256" fill="#d8ecfe" r="154.527"/><circle cx="177.809" cy="256" fill="#7a6d79" r="139.074"/><path d="M203.564 392.684a138.703 138.703 0 01-25.755 2.39c-76.81 0-139.074-62.264-139.074-139.074s62.264-139.074 139.074-139.074c8.798 0 17.41.814 25.755 2.39-64.5 12.063-113.32 68.672-113.32 136.684s48.82 124.621 113.32 136.684z" fill="#685e68"/><circle cx="177.809" cy="256" fill="#eaf6ff" r="61.811"/><circle cx="177.809" cy="256" fill="#b5adb6" r="30.905"/><circle cx="365.998" cy="139.039" fill="#7a6d79" r="30.905"/><g><path d="M321.937 302.873a7.726 7.726 0 01-3.87-14.418l18.203-10.509c13.571-7.835 22.002-22.438 22.002-38.108V139.039a7.726 7.726 0 1115.452 0v100.799c0 21.173-11.391 40.903-29.728 51.49l-18.203 10.509a7.696 7.696 0 01-3.856 1.036z" fill="#b5adb6"/></g><path d="M471.823 207.581v164.87a7.211 7.211 0 01-7.211 7.211h-47.388a7.211 7.211 0 01-7.211-7.211v-164.87a7.211 7.211 0 017.211-7.211h47.388a7.212 7.212 0 017.211 7.211z" fill="#d8ecfe"/><g><path d="M433.191 200.37h15.453v179.293h-15.453z" fill="#b5adb6"/></g><path d="M464.823 308.539h-47.811a7 7 0 01-7-7v-16.905a7 7 0 017-7h47.811a7 7 0 017 7v16.905a7 7 0 01-7 7z" fill="#7a6d79"/><path d="M272.627 333.372l-8.453-14.641a7 7 0 012.562-9.562l41.405-23.905a7 7 0 019.562 2.562l8.453 14.641a7 7 0 01-2.562 9.562l-41.405 23.905a7 7 0 01-9.562-2.562z" fill="#f07281"/></g></svg>