<?xml version="1.0" encoding="UTF-8" standalone="no"?>
<!DOCTYPE svg PUBLIC "-//W3C//DTD SVG 1.1//EN" "http://www.w3.org/Graphics/SVG/1.1/DTD/svg11.dtd">
<svg version="1.1" xmlns="http://www.w3.org/2000/svg" xmlns:xlink="http://www.w3.org/1999/xlink" preserveAspectRatio="xMidYMid meet" viewBox="0 0 640 640" width="640" height="640"><defs><path d="M338.6 22.84C338.6 11.11 329.09 1.59 317.36 1.59C287.75 1.59 50.86 1.59 21.25 1.59C9.51 1.59 0 11.11 0 22.84C0 24.97 0 41.96 0 44.09C0 55.82 9.51 65.34 21.25 65.34C50.86 65.34 287.75 65.34 317.36 65.34C329.09 65.34 338.6 55.82 338.6 44.09C338.6 39.84 338.6 24.97 338.6 22.84Z" id="casebQbbk"></path><path d="M21.25 135.45C9.51 135.45 0 144.96 0 156.7C0 158.82 0 175.82 0 177.94C0 189.68 9.51 199.19 21.25 199.19C46.87 199.19 251.84 199.19 277.46 199.19C289.19 199.19 298.7 189.68 298.7 177.94C298.7 175.82 298.7 158.82 298.7 156.7C298.7 144.96 289.19 135.45 277.46 135.45C226.21 135.45 46.87 135.45 21.25 135.45Z" id="ccwaLpokz"></path><path d="M21.25 269.31C9.51 269.31 0 278.82 0 290.55C0 292.68 0 309.68 0 311.8C0 323.54 9.51 333.05 21.25 333.05C42.88 333.05 215.92 333.05 237.55 333.05C249.29 333.05 258.8 323.54 258.8 311.8C258.8 309.68 258.8 292.68 258.8 290.55C258.8 278.82 249.29 269.31 237.55 269.31C194.29 269.31 42.88 269.31 21.25 269.31Z" id="aarKo8BbB"></path><path d="M21.25 418.04C9.51 418.04 0 427.55 0 439.28C0 441.41 0 458.4 0 460.53C0 472.26 9.51 481.78 21.25 481.78C38.89 481.78 180.01 481.78 197.65 481.78C209.38 481.78 218.9 472.26 218.9 460.53C218.9 458.4 218.9 441.41 218.9 439.28C218.9 427.55 209.39 418.04 197.65 418.04C162.37 418.04 38.89 418.04 21.25 418.04Z" id="l2NmfOac4R"></path><path d="M21.25 551.89C9.51 551.89 0 561.4 0 573.14C0 575.26 0 592.26 0 594.39C0 606.12 9.51 615.63 21.25 615.63C34.9 615.63 144.1 615.63 157.75 615.63C169.48 615.63 178.99 606.12 178.99 594.39C178.99 592.26 178.99 575.26 178.99 573.14C178.99 561.4 169.48 551.89 157.75 551.89C130.45 551.89 34.9 551.89 21.25 551.89Z" id="fp7E78H6"></path><path d="M618.75 439.43C614.77 435.45 609.36 433.21 603.73 433.21C598.1 433.21 592.69 435.45 588.7 439.43C583.83 444.3 559.47 468.66 515.63 512.51C515.63 225.08 515.63 65.4 515.63 33.46C515.63 21.73 506.12 12.22 494.38 12.22C492.26 12.22 475.26 12.22 473.14 12.22C461.4 12.22 451.89 21.73 451.89 33.46C451.89 65.4 451.89 225.08 451.89 512.5C408.04 468.66 383.68 444.3 378.81 439.43C374.83 435.45 369.42 433.21 363.79 433.21C358.15 433.21 352.75 435.45 348.77 439.43C347.26 440.93 335.24 452.95 333.74 454.45C325.45 462.75 325.45 476.2 333.74 484.5C347.24 498 455.24 606 468.73 619.5C472.88 623.64 478.32 625.72 483.76 625.72C489.2 625.72 494.63 623.64 498.78 619.5C512.28 606 620.28 498 633.78 484.5C642.07 476.2 642.07 462.75 633.78 454.46C630.77 451.45 620.26 440.93 618.75 439.43Z" id="c9X1qdfdv"></path></defs><g><g><g><use xlink:href="#casebQbbk" opacity="1" fill="#ffffff" fill-opacity="1"></use><g><use xlink:href="#casebQbbk" opacity="1" fill-opacity="0" stroke="#000000" stroke-width="1" stroke-opacity="0"></use></g></g><g><use xlink:href="#ccwaLpokz" opacity="1" fill="#ffffff" fill-opacity="1"></use><g><use xlink:href="#ccwaLpokz" opacity="1" fill-opacity="0" stroke="#000000" stroke-width="1" stroke-opacity="0"></use></g></g><g><use xlink:href="#aarKo8BbB" opacity="1" fill="#ffffff" fill-opacity="1"></use><g><use xlink:href="#aarKo8BbB" opacity="1" fill-opacity="0" stroke="#000000" stroke-width="1" stroke-opacity="0"></use></g></g><g><use xlink:href="#l2NmfOac4R" opacity="1" fill="#ffffff" fill-opacity="1"></use><g><use xlink:href="#l2NmfOac4R" opacity="1" fill-opacity="0" stroke="#000000" stroke-width="1" stroke-opacity="0"></use></g></g><g><use xlink:href="#fp7E78H6" opacity="1" fill="#ffffff" fill-opacity="1"></use><g><use xlink:href="#fp7E78H6" opacity="1" fill-opacity="0" stroke="#000000" stroke-width="1" stroke-opacity="0"></use></g></g><g><use xlink:href="#c9X1qdfdv" opacity="1" fill="#ffffff" fill-opacity="1"></use><g><use xlink:href="#c9X1qdfdv" opacity="1" fill-opacity="0" stroke="#000000" stroke-width="1" stroke-opacity="0"></use></g></g></g></g></svg>