<?xml version="1.0" encoding="UTF-8" standalone="no"?>
<!DOCTYPE svg PUBLIC "-//W3C//DTD SVG 1.1//EN" "http://www.w3.org/Graphics/SVG/1.1/DTD/svg11.dtd">
<svg version="1.1" xmlns="http://www.w3.org/2000/svg" xmlns:xlink="http://www.w3.org/1999/xlink" preserveAspectRatio="xMidYMid meet" viewBox="0 0 640 640" width="640" height="640"><defs><path d="M317.36 625.72C287.75 625.72 50.86 625.72 21.25 625.72C9.51 625.72 0 616.2 0 604.47C0 602.34 0 585.35 0 583.22C0 571.49 9.51 561.97 21.25 561.97C50.86 561.97 287.75 561.97 317.36 561.97C329.09 561.97 338.6 571.49 338.6 583.22C338.6 587.47 338.6 602.34 338.6 604.47C338.6 616.2 329.09 625.72 317.36 625.72Z" id="b1vs0wo1Vm"></path><path d="M317.36 625.72C287.75 625.72 50.86 625.72 21.25 625.72C9.51 625.72 0 616.2 0 604.47C0 602.34 0 585.35 0 583.22C0 571.49 9.51 561.97 21.25 561.97C50.86 561.97 287.75 561.97 317.36 561.97C329.09 561.97 338.6 571.49 338.6 583.22C338.6 587.47 338.6 602.34 338.6 604.47C338.6 616.2 329.09 625.72 317.36 625.72Z" id="dwP3unFBU"></path><path d="M0 470.61C0 468.49 0 451.49 0 449.37C0 437.63 9.51 428.12 21.25 428.12C46.87 428.12 251.84 428.12 277.46 428.12C289.19 428.12 298.7 437.63 298.7 449.37C298.7 451.49 298.7 468.49 298.7 470.61C298.7 482.35 289.19 491.86 277.46 491.86C226.21 491.86 46.87 491.86 21.25 491.86C9.51 491.86 0 482.35 0 470.61Z" id="a1QF6nCWVP"></path><path d="M0 470.61C0 468.49 0 451.49 0 449.37C0 437.63 9.51 428.12 21.25 428.12C46.87 428.12 251.84 428.12 277.46 428.12C289.19 428.12 298.7 437.63 298.7 449.37C298.7 451.49 298.7 468.49 298.7 470.61C298.7 482.35 289.19 491.86 277.46 491.86C226.21 491.86 46.87 491.86 21.25 491.86C9.51 491.86 0 482.35 0 470.61Z" id="a2Zpf5UfoJ"></path><path d="M0 336.76C0 334.63 0 317.63 0 315.51C0 303.77 9.51 294.26 21.25 294.26C42.88 294.26 215.92 294.26 237.55 294.26C249.29 294.26 258.8 303.77 258.8 315.51C258.8 317.63 258.8 334.63 258.8 336.76C258.8 348.49 249.29 358 237.55 358C194.29 358 42.88 358 21.25 358C9.51 358 0 348.49 0 336.76Z" id="a167LrI5q"></path><path d="M0 336.76C0 334.63 0 317.63 0 315.51C0 303.77 9.51 294.26 21.25 294.26C42.88 294.26 215.92 294.26 237.55 294.26C249.29 294.26 258.8 303.77 258.8 315.51C258.8 317.63 258.8 334.63 258.8 336.76C258.8 348.49 249.29 358 237.55 358C194.29 358 42.88 358 21.25 358C9.51 358 0 348.49 0 336.76Z" id="bagkxNikD"></path><path d="M0 188.03C0 185.9 0 168.91 0 166.78C0 155.05 9.51 145.53 21.25 145.53C38.89 145.53 180.01 145.53 197.65 145.53C209.38 145.53 218.9 155.05 218.9 166.78C218.9 168.91 218.9 185.9 218.9 188.03C218.9 199.76 209.39 209.27 197.65 209.27C162.37 209.27 38.89 209.27 21.25 209.27C9.51 209.27 0 199.76 0 188.03Z" id="bccMi3yL7"></path><path d="M0 188.03C0 185.9 0 168.91 0 166.78C0 155.05 9.51 145.53 21.25 145.53C38.89 145.53 180.01 145.53 197.65 145.53C209.38 145.53 218.9 155.05 218.9 166.78C218.9 168.91 218.9 185.9 218.9 188.03C218.9 199.76 209.39 209.27 197.65 209.27C162.37 209.27 38.89 209.27 21.25 209.27C9.51 209.27 0 199.76 0 188.03Z" id="a4OKHUAllc"></path><path d="M0 54.17C0 52.05 0 35.05 0 32.92C0 21.19 9.51 11.68 21.25 11.68C34.9 11.68 144.1 11.68 157.75 11.68C169.48 11.68 178.99 21.19 178.99 32.92C178.99 35.05 178.99 52.05 178.99 54.17C178.99 65.91 169.48 75.42 157.75 75.42C130.45 75.42 34.9 75.42 21.25 75.42C9.51 75.42 0 65.91 0 54.17Z" id="b5XGfSucR4"></path><path d="M0 54.17C0 52.05 0 35.05 0 32.92C0 21.19 9.51 11.68 21.25 11.68C34.9 11.68 144.1 11.68 157.75 11.68C169.48 11.68 178.99 21.19 178.99 32.92C178.99 35.05 178.99 52.05 178.99 54.17C178.99 65.91 169.48 75.42 157.75 75.42C130.45 75.42 34.9 75.42 21.25 75.42C9.51 75.42 0 65.91 0 54.17Z" id="a7lyuqyqZP"></path><path d="M603.73 194.1C598.1 194.1 592.69 191.86 588.7 187.88C583.83 183.01 559.47 158.65 515.63 114.8C515.63 402.23 515.63 561.91 515.63 593.85C515.63 605.58 506.12 615.09 494.38 615.09C492.26 615.09 475.26 615.09 473.14 615.09C461.4 615.09 451.89 605.58 451.89 593.85C451.89 561.91 451.89 402.23 451.89 114.81C408.04 158.65 383.68 183.01 378.81 187.88C374.83 191.86 369.42 194.1 363.79 194.1C358.15 194.1 352.75 191.86 348.77 187.88C347.26 186.38 335.24 174.36 333.74 172.86C325.45 164.56 325.45 151.11 333.74 142.81C347.24 129.31 455.24 21.31 468.73 7.81C472.88 3.67 478.32 1.59 483.76 1.59C489.2 1.59 494.63 3.67 498.78 7.81C512.28 21.31 620.28 129.31 633.78 142.81C642.07 151.11 642.07 164.56 633.78 172.85C630.77 175.86 620.26 186.38 618.75 187.88C614.77 191.86 609.36 194.1 603.73 194.1Z" id="c16LM6qfaI"></path><path d="M603.73 194.1C598.1 194.1 592.69 191.86 588.7 187.88C583.83 183.01 559.47 158.65 515.63 114.8C515.63 402.23 515.63 561.91 515.63 593.85C515.63 605.58 506.12 615.09 494.38 615.09C492.26 615.09 475.26 615.09 473.14 615.09C461.4 615.09 451.89 605.58 451.89 593.85C451.89 561.91 451.89 402.23 451.89 114.81C408.04 158.65 383.68 183.01 378.81 187.88C374.83 191.86 369.42 194.1 363.79 194.1C358.15 194.1 352.75 191.86 348.77 187.88C347.26 186.38 335.24 174.36 333.74 172.86C325.45 164.56 325.45 151.11 333.74 142.81C347.24 129.31 455.24 21.31 468.73 7.81C472.88 3.67 478.32 1.59 483.76 1.59C489.2 1.59 494.63 3.67 498.78 7.81C512.28 21.31 620.28 129.31 633.78 142.81C642.07 151.11 642.07 164.56 633.78 172.85C630.77 175.86 620.26 186.38 618.75 187.88C614.77 191.86 609.36 194.1 603.73 194.1Z" id="o4mnIquuR"></path></defs><g><g><g><use xlink:href="#b1vs0wo1Vm" opacity="1" fill="#ffffff" fill-opacity="1"></use><g><use xlink:href="#b1vs0wo1Vm" opacity="1" fill-opacity="0" stroke="#000000" stroke-width="1" stroke-opacity="0"></use></g></g><g><use xlink:href="#dwP3unFBU" opacity="1" fill="#000000" fill-opacity="0"></use><g><use xlink:href="#dwP3unFBU" opacity="1" fill-opacity="0" stroke="#000000" stroke-width="1" stroke-opacity="0"></use></g></g><g><use xlink:href="#a1QF6nCWVP" opacity="1" fill="#ffffff" fill-opacity="1"></use><g><use xlink:href="#a1QF6nCWVP" opacity="1" fill-opacity="0" stroke="#000000" stroke-width="1" stroke-opacity="0"></use></g></g><g><use xlink:href="#a2Zpf5UfoJ" opacity="1" fill="#000000" fill-opacity="0"></use><g><use xlink:href="#a2Zpf5UfoJ" opacity="1" fill-opacity="0" stroke="#000000" stroke-width="1" stroke-opacity="0"></use></g></g><g><use xlink:href="#a167LrI5q" opacity="1" fill="#ffffff" fill-opacity="1"></use><g><use xlink:href="#a167LrI5q" opacity="1" fill-opacity="0" stroke="#000000" stroke-width="1" stroke-opacity="0"></use></g></g><g><use xlink:href="#bagkxNikD" opacity="1" fill="#000000" fill-opacity="0"></use><g><use xlink:href="#bagkxNikD" opacity="1" fill-opacity="0" stroke="#000000" stroke-width="1" stroke-opacity="0"></use></g></g><g><use xlink:href="#bccMi3yL7" opacity="1" fill="#ffffff" fill-opacity="1"></use><g><use xlink:href="#bccMi3yL7" opacity="1" fill-opacity="0" stroke="#000000" stroke-width="1" stroke-opacity="0"></use></g></g><g><use xlink:href="#a4OKHUAllc" opacity="1" fill="#000000" fill-opacity="0"></use><g><use xlink:href="#a4OKHUAllc" opacity="1" fill-opacity="0" stroke="#000000" stroke-width="1" stroke-opacity="0"></use></g></g><g><use xlink:href="#b5XGfSucR4" opacity="1" fill="#ffffff" fill-opacity="1"></use><g><use xlink:href="#b5XGfSucR4" opacity="1" fill-opacity="0" stroke="#000000" stroke-width="1" stroke-opacity="0"></use></g></g><g><use xlink:href="#a7lyuqyqZP" opacity="1" fill="#000000" fill-opacity="0"></use><g><use xlink:href="#a7lyuqyqZP" opacity="1" fill-opacity="0" stroke="#000000" stroke-width="1" stroke-opacity="0"></use></g></g><g><use xlink:href="#c16LM6qfaI" opacity="1" fill="#ffffff" fill-opacity="1"></use><g><use xlink:href="#c16LM6qfaI" opacity="1" fill-opacity="0" stroke="#000000" stroke-width="1" stroke-opacity="0"></use></g></g><g><use xlink:href="#o4mnIquuR" opacity="1" fill="#000000" fill-opacity="0"></use><g><use xlink:href="#o4mnIquuR" opacity="1" fill-opacity="0" stroke="#000000" stroke-width="1" stroke-opacity="0"></use></g></g></g></g></svg>