<?xml version="1.0" encoding="UTF-8" standalone="no"?>
<!DOCTYPE svg PUBLIC "-//W3C//DTD SVG 1.1//EN" "http://www.w3.org/Graphics/SVG/1.1/DTD/svg11.dtd">
<svg version="1.1" xmlns="http://www.w3.org/2000/svg" xmlns:xlink="http://www.w3.org/1999/xlink" preserveAspectRatio="xMidYMid meet" viewBox="0 0 640 640" width="640" height="640"><defs><path d="M26.67 328.45C11.95 328.45 0 316.5 0 301.78C0 287.06 11.95 275.11 26.67 275.11C85.33 275.11 554.67 275.11 613.33 275.11C628.05 275.11 640 287.06 640 301.78C640 316.5 628.05 328.45 613.33 328.45C496 328.45 85.33 328.45 26.67 328.45Z" id="b1pRef1pqT"></path><path d="M26.67 124C11.95 124 0 112.05 0 97.33C0 82.61 11.95 70.67 26.67 70.67C85.33 70.67 554.67 70.67 613.33 70.67C628.05 70.67 640 82.61 640 97.33C640 112.05 628.05 124 613.33 124C496 124 85.33 124 26.67 124Z" id="b4SGt59VwW"></path><path d="M26.67 532.89C11.95 532.89 0 520.94 0 506.22C0 491.5 11.95 479.55 26.67 479.55C85.33 479.55 554.67 479.55 613.33 479.55C628.05 479.55 640 491.5 640 506.22C640 520.94 628.05 532.89 613.33 532.89C496 532.89 85.33 532.89 26.67 532.89Z" id="ajkLBKPO2"></path></defs><g><g><g><use xlink:href="#b1pRef1pqT" opacity="1" fill="#ffffff" fill-opacity="1"></use><g><use xlink:href="#b1pRef1pqT" opacity="1" fill-opacity="0" stroke="#000000" stroke-width="1" stroke-opacity="0"></use></g></g><g><use xlink:href="#b4SGt59VwW" opacity="1" fill="#ffffff" fill-opacity="1"></use><g><use xlink:href="#b4SGt59VwW" opacity="1" fill-opacity="0" stroke="#000000" stroke-width="1" stroke-opacity="0"></use></g></g><g><use xlink:href="#ajkLBKPO2" opacity="1" fill="#ffffff" fill-opacity="1"></use><g><use xlink:href="#ajkLBKPO2" opacity="1" fill-opacity="0" stroke="#000000" stroke-width="1" stroke-opacity="0"></use></g></g></g></g></svg>