<svg height="512" viewBox="0 0 512 512" width="512" xmlns="http://www.w3.org/2000/svg"><g><path d="M243.429 420.571L224 440l16 40 16 8h8l8-10.373V448z" fill="#a8a8a8"/><path d="M260 448l-20-32 40-56-24-72 64 64z" fill="#961b20"/><path d="M153.132 344.08l-56-8A8 8 0 0088 344v24h-8a24 24 0 1024 24v-38.776l40 5.714V376h-8a24 24 0 1024 24v-48a8 8 0 00-6.868-7.92z" fill="#fbb540"/><path d="M473.94 240.239L448 233.754v-7.508l22.06 5.515a8 8 0 003.88-15.522l-32-8A8 8 0 00432 216v32h-8a24 24 0 1024 24v-21.754l22.06 5.515a8 8 0 003.88-15.522z" fill="#02a437"/><path d="M277.277 120l-16-24H240l-8 24-2 12h47.277z" fill="#fdc9a6"/><path d="M268.38 106.65a23.985 23.985 0 01-31.54-1.17L240 96h21.28z" fill="#f6bb92"/><path d="M277.277 120L296 128v40a95.263 95.263 0 0116 52.844V240h-80v-20.692a57.921 57.921 0 00-11.585-34.754L208 168v-40l24-8 1.321 1.321A30.2 30.2 0 00277.277 120z" fill="#537cd8"/><path d="M184 182.4l24-14.4v-40l-40 22.222z" fill="#5d70b3"/><path d="M168 150.222L136 168l-16 80v24l32 8 8-16-8-16 16-56 16-9.6z" fill="#fdc9a6"/><rect fill="#fdc9a6" height="64" rx="24" transform="rotate(180 253.277 72)" width="48" x="229.277" y="40"/><path d="M277.277 56V43.777A19.776 19.776 0 00257.5 24a19.777 19.777 0 00-17.689 10.932L237.277 40H234.9a18.9 18.9 0 00-17.93 12.921 18.9 18.9 0 004.565 19.337L229.277 80l24-24z" fill="#55300b"/><path d="M259.174 448L320 352l-61.049-60.9A38 38 0 01248 264.408V240h64v16l41.16 68.6a48 48 0 016.84 24.7v2.979a48 48 0 01-9.306 28.4L301.277 448z" fill="#d32b39"/><path d="M301.277 448L320 488h-32l-28.723-17-.277-23z" fill="#cbcbcb"/><path d="M328 155.2l48-19.2 8-64V40l-8-16h-24v16l-8 16 8 16-8 40-16 5.333z" fill="#fdc9a6"/><path d="M328 117.333L296 128v40l32-12.8z" fill="#5d70b3"/><g fill="#43dcfe"><path d="M216 312a7.974 7.974 0 01-5.657-2.343l-4.687-4.686A46.325 46.325 0 01192 272a8 8 0 0116 0 30.423 30.423 0 008.971 21.656l4.686 4.687A8 8 0 01216 312zM104 176a8.005 8.005 0 01-7.591-10.531l2.343-7.03a50.847 50.847 0 0125.67-29.6 8 8 0 017.154 14.31 34.952 34.952 0 00-17.643 20.351l-2.343 7.028A8 8 0 01104 176zM152.006 132a8 8 0 01-3.584-15.157l8-4a8 8 0 117.156 14.31l-8 4a7.973 7.973 0 01-3.572.847zM392 171.2a8 8 0 01-2.974-15.43 10.555 10.555 0 006.106-6.475l5.275-15.827a8 8 0 0115.18 5.06l-5.276 15.826a26.525 26.525 0 01-15.343 16.272 7.971 7.971 0 01-2.968.574zM360 184a8 8 0 01-2.975-15.43l8-3.2a8 8 0 015.944 14.856l-8 3.2A8 8 0 01360 184zM200 248a8 8 0 01-8-8v-8a8 8 0 0116 0v8a8 8 0 01-8 8z"/></g></g></svg>