<?xml version="1.0" standalone="no"?>
<!DOCTYPE svg PUBLIC "-//W3C//DTD SVG 20010904//EN"
 "http://www.w3.org/TR/2001/REC-SVG-20010904/DTD/svg10.dtd">
<svg version="1.0" xmlns="http://www.w3.org/2000/svg"
 width="1280.000000pt" height="1280.000000pt" viewBox="0 0 1280.000000 1280.000000"
 preserveAspectRatio="xMidYMid meet">
<metadata>
Created by potrace 1.16, written by Peter Selinger 2001-2019
</metadata>
<g transform="translate(0.000000,1280.000000) scale(0.100000,-0.100000)"
fill="#000000" stroke="none">
<path d="M9477 12220 c-133 -23 -273 -82 -387 -165 -92 -67 -2415 -2392 -2474
-2477 -59 -85 -109 -192 -138 -299 -32 -117 -31 -336 1 -454 85 -314 333 -561
648 -647 116 -31 336 -31 452 0 108 29 215 79 299 138 37 26 241 221 454 433
l388 385 3 -3895 c2 -3557 4 -3900 19 -3959 42 -170 124 -321 234 -434 169
-173 369 -262 609 -273 207 -9 373 36 541 146 200 132 337 333 385 566 18 87
19 221 19 3975 l0 3884 403 -400 c221 -221 423 -415 449 -433 468 -315 1105
-143 1337 361 67 146 76 191 76 388 -1 164 -3 180 -29 260 -34 103 -90 211
-150 288 -25 31 -579 591 -1233 1244 -1278 1276 -1251 1251 -1421 1317 -142
54 -339 75 -485 51z"/>
<path d="M535 9580 c-178 -47 -323 -149 -422 -298 -86 -130 -117 -250 -111
-428 5 -135 30 -225 93 -332 75 -128 220 -252 353 -302 138 -52 10 -50 2798
-50 1427 0 2594 2 2594 4 0 2 -25 55 -55 117 -66 138 -116 289 -147 441 -20
97 -23 143 -23 323 1 217 10 295 55 461 11 38 20 73 20 77 0 4 -1144 7 -2542
6 -2443 0 -2546 -1 -2613 -19z"/>
<path d="M585 6739 c-247 -41 -464 -226 -549 -468 -26 -74 -31 -104 -34 -210
-5 -139 10 -222 58 -326 80 -174 237 -317 421 -381 l84 -29 3658 -3 3657 -2 0
715 0 715 -3622 -1 c-1993 -1 -3645 -5 -3673 -10z"/>
<path d="M612 3889 c-280 -36 -522 -251 -592 -525 -27 -105 -27 -263 0 -368
62 -244 254 -437 507 -509 l78 -22 3638 -3 3637 -2 0 720 0 720 -3602 -1
c-1982 -1 -3632 -5 -3666 -10z"/>
</g>
</svg>
